<svg xmlns="http://www.w3.org/2000/svg" width="106" height="95" viewBox="0 0 106 95">
    <defs>
        <linearGradient id="a" x1="49.966%" x2="49.966%" y1=".064%" y2="99.998%">
            <stop offset=".169%" stop-color="#91C2DF"/>
            <stop offset="100%" stop-color="#3B73B6"/>
        </linearGradient>
        <linearGradient id="b" x1="49.966%" x2="49.966%" y1="100.003%" y2=".137%">
            <stop offset="0%" stop-color="#84C9EC"/>
            <stop offset="100%" stop-color="#AEE2FA"/>
        </linearGradient>
    </defs>
    <g fill="none" fill-rule="evenodd" transform="translate(1)">
        <path fill="url(#a)" fill-rule="nonzero" stroke="#FFF" stroke-width=".768" d="M74.922 56.26c-5.893 3.518-10.862 3.863-10.862 3.863s-.739.85-2.08 1.679c-1.34.85-4.668 2.415-7.233 3.519-2.588 1.104-3.882.874-3.882.874-1.965-1.196-3.582-4.6-3.582-4.6s-3.582-2.024-5.778-7.75C39.356 48.232 43.423 42.275 43.678 42h-3.143c-14.744 0-27.801.437-35.82 1.104v.046a3.936 3.936 0 0 0-3.328 2.714c-.024.046-.024.115-.047.16-.046.346-.092.668-.115 1.013C.439 53.545 0 61.135 0 69.253c0 7.567.485 14.65 1.179 20.883.023 0-.024.023 0 .023a3.901 3.901 0 0 0 2.98 2.691c.278.023.532.046.833.07 3.12.252 6.979.482 11.393.643 6.933.276 15.23.437 24.15.437 8.874 0 17.147-.161 24.08-.437 4.437-.184 8.32-.391 11.463-.644h.023c.23-.023.462-.046.67-.069a3.875 3.875 0 0 0 3.05-2.714c.024 0-.023 0 0 0A189.44 189.44 0 0 0 81 69.253c0-6.255-.277-12.189-.74-17.57-1.455 1.632-3.235 3.311-5.338 4.576z"/>
        <path fill="#FFF" fill-rule="nonzero" d="M47 67.489L24 81V54zM51.92 81H48V54h3.92v27zM59 54h-3.92v27H59V54z"/>
        <g fill-rule="nonzero">
            <path fill="url(#b)" d="M14.32 63.09c-.185 0-.369.024-.53.024-7.298 0-13.214-5.75-13.214-12.796 0-3.09 1.15-6.09 3.269-8.409 1.703-2 5.824-5.954 14.296-10.204v-.182h.46c.484 0 2.003 1.636 3.27 4.909 1.058 2.727 1.404 3.045 2.233 3.818.23.227.506.477.828.795 1.313 1.341 2.67 3.705 3.223 6.319-.138-1.364-.667-3.046-1.956-5-.415-.614-.921-1.182-1.474-1.773-.967-1.046-1.98-2.114-2.486-3.636-.76-2.228-2.026-4.91-2.625-5.705l-.414-.568c-1.473.5-8.334 3.113-16.138 11.727l-.645.705-.16-.955c-.139-.84-.185-1.614-.185-2.636 0-5.023 2.095-9.728 5.87-13.25.023-.023.645-.568.967-.841 2.256-2.023 7.897-7.318 7.943-7.364l.806-.773-.139 4.023a21.025 21.025 0 0 1 4.328-.454c5.134 0 10.06 1.886 13.744 5.227-.299-1.66-.53-3.886-.391-6.66.115-2.636 1.013-5.954 2.624-9.863 1.198-2.886 2.372-5.045 2.395-5.068l.115-.205L62.849.591 38.446 29.386a17.351 17.351 0 0 1 2.417 5c-.046-.204-.069-.409-.115-.613l-.046-.25.207-.182c1.105-.977 2.487-2.227 3.477-3.114l.644-.59.138.863c.185 1.25.277 2.5.277 3.75 0 5-1.45 9.84-4.213 14-.138.205-.254.386-.392.568l-.046.046a8.033 8.033 0 0 1-.391.545l-.023.023a23.096 23.096 0 0 1-1.335 1.636c-.323.364-.53.591-.645.705-3.292 4.045-9.232 7.022-15.494 7.795-.23.205-.437.387-.644.568a26.1 26.1 0 0 1-1.197 1c-.829.637-3.062 1.728-4.397 2.364-.369.182-.737.364-.852.41l-.276.272-1.22-1.091z" transform="translate(41)"/>
            <path fill="#FFF" d="M102.652 1.318L78.847 29.364C80.92 32.25 82.14 35.75 82.163 39.5h.483c.023-.34.023-.66.023-1 0-1.66-.161-3.25-.46-4.818a199.311 199.311 0 0 0 3.476-3.137c.184 1.205.276 2.432.276 3.682 0 5.091-1.52 9.818-4.144 13.75 0 0 0 .023-.023.023-.115.182-.253.364-.368.545 0 .023-.023.023-.023.046-.138.182-.253.364-.391.545 0 0 0 .023-.024.023-.414.568-.851 1.091-1.312 1.614l-.667.727c-3.315 4.09-9.324 6.955-15.333 7.636-.23.228-.483.432-.736.637-.392.34-.806.704-1.175.977-1.105.864-5.133 2.66-5.248 2.773l-1.036-.932c-.23.023-.46.023-.691.023-7.045 0-12.754-5.523-12.754-12.341 0-3.114 1.197-5.955 3.154-8.114 1.75-2.045 5.893-5.977 14.411-10.227.093 0 1.497 1.182 2.832 4.613 1.381 3.569 1.612 3.182 3.154 4.773 1.542 1.591 3.453 5.068 3.384 8.705l-.16 1.363s2.531-3.636-1.221-9.318c-1.151-1.75-3.154-3.023-3.914-5.295-.76-2.273-2.072-5-2.693-5.841l-.622-.841s-7.666 2.023-16.667 11.954a15.694 15.694 0 0 1-.185-2.568c0-5.045 2.187-9.613 5.733-12.909 0 0 .621-.568.944-.818 2.302-2.068 7.965-7.386 7.965-7.386l-.115 3.5a20.954 20.954 0 0 1 4.811-.569c5.779 0 10.959 2.387 14.504 6.182-.414-1.636-.875-4.363-.714-8.045.277-6.25 4.95-14.727 4.95-14.727l21.065-3.387zm2.302-1.295l-2.463.409-21.065 3.477-.438.068-.207.387c-.184.363-4.765 8.727-5.064 15.113-.093 2.16.023 4.023.207 5.523-3.638-2.91-8.265-4.545-13.1-4.545-1.289 0-2.578.113-3.844.34l.069-2.34.069-2.228-1.635 1.523c-.046.045-5.663 5.318-7.942 7.364-.322.272-.92.795-.944.818-3.844 3.659-5.985 8.477-5.985 13.613 0 1.046.069 1.841.184 2.705l.207 1.34a12.83 12.83 0 0 0-1.91 6.728c0 7.296 6.123 13.25 13.674 13.25h.345l.76.682.645.568.529-.523.783-.386c1.818-.886 3.683-1.795 4.489-2.409.322-.25.737-.59 1.197-1 .184-.136.345-.295.553-.477 6.308-.796 12.247-3.818 15.608-7.887.161-.159.369-.386.668-.727.483-.545.944-1.114 1.358-1.682v-.022c.138-.182.276-.364.415-.569l.046-.045c.138-.182.253-.386.391-.568l.023-.023c2.809-4.227 4.282-9.16 4.282-14.25 0-1.273-.092-2.568-.276-3.818l-.254-1.705-1.289 1.182a219.422 219.422 0 0 1-3.246 2.932A16.528 16.528 0 0 0 80 29.455l23.343-27.523 1.612-1.91z"/>
        </g>
        <circle cx="89.06" cy="51.06" r="1"/>
        <path fill="#B5DDEE" fill-rule="nonzero" d="M78.588 30L89 17c-3.757 2.787-8.6 8.971-11 12.18.204.258.407.539.588.82z"/>
        <circle cx="60" cy="57" r="2" fill="#2D2243" fill-rule="nonzero"/>
        <circle cx="60" cy="57" r="1" fill="#26386C" fill-rule="nonzero"/>
        <circle cx="59.5" cy="55.5" r="1" fill="#FFF" fill-rule="nonzero"/>
        <path fill="#AFE0F8" fill-rule="nonzero" d="M65.08 57.601c.422-.068 7.864-.594 13.92-5.601 0 0-2.793 3.452-8.474 5.441C65.596 59.156 64 58.996 64 58.996l1.08-1.395z"/>
        <path fill="#B5DDEE" fill-rule="nonzero" d="M63.999 40.174A4.976 4.976 0 0 1 63.022 39c-.05.044 0 0 0 0s.586 2.28.586 2.879c0 .487.415-.576.391-1.705z"/>
        <path fill="#FFF" fill-rule="nonzero" d="M47 62l.938.889.062 1.037-.417.074zM52 65.977c.235-.045.918.023.918.023l1.976-.705L56 64.727 55.741 64l-3.435.864L52 65.977z"/>
        <path fill="#1B2440" fill-rule="nonzero" d="M48 61.202c.589 1.398 1.57 3.544 3.074 4.798 0 0 2.637-.482 4.926-1.88-1.57-1.712-2.18-2.773-4.403-3.014-1.112-.12-2.42-.193-3.597.096z"/>
    </g>
</svg>
